<svg width="57" height="57" viewBox="0 0 57 57" fill="none" xmlns="http://www.w3.org/2000/svg">
<path d="M43.55 33.75H13.45C11.8727 33.7477 10.3606 33.1201 9.24527 32.0047C8.12993 30.8894 7.50231 29.3773 7.5 27.8V12.75C7.5 12.2859 7.68437 11.8408 8.01256 11.5126C8.34075 11.1844 8.78587 11 9.25 11H47.75C48.2141 11 48.6592 11.1844 48.9874 11.5126C49.3156 11.8408 49.5 12.2859 49.5 12.75V27.8C49.4977 29.3773 48.8701 30.8894 47.7547 32.0047C46.6394 33.1201 45.1273 33.7477 43.55 33.75ZM11 14.5V27.8C11 28.4498 11.2581 29.0729 11.7176 29.5324C12.1771 29.9919 12.8002 30.25 13.45 30.25H43.55C44.1998 30.25 44.8229 29.9919 45.2824 29.5324C45.7419 29.0729 46 28.4498 46 27.8V14.5H11Z" fill="#383838"/>
<path d="M16.25 26.75C16.25 27.2141 16.4344 27.6592 16.7626 27.9874C17.0908 28.3156 17.5359 28.5 18 28.5H39C39.4641 28.5 39.9092 28.3156 40.2374 27.9874C40.5656 27.6592 40.75 27.2141 40.75 26.75C40.75 26.2859 40.5656 25.8408 40.2374 25.5126C39.9092 25.1844 39.4641 25 39 25H18C17.5359 25 17.0908 25.1844 16.7626 25.5126C16.4344 25.8408 16.25 26.2859 16.25 26.75ZM18 18C18 17.5359 17.8156 17.0908 17.4874 16.7626C17.1592 16.4344 16.7141 16.25 16.25 16.25H14.5C14.0359 16.25 13.5908 16.4344 13.2626 16.7626C12.9344 17.0908 12.75 17.5359 12.75 18C12.75 18.4641 12.9344 18.9092 13.2626 19.2374C13.5908 19.5656 14.0359 19.75 14.5 19.75H16.25C16.7141 19.75 17.1592 19.5656 17.4874 19.2374C17.8156 18.9092 18 18.4641 18 18ZM21.5 19.75H23.25C23.7141 19.75 24.1592 19.5656 24.4874 19.2374C24.8156 18.9092 25 18.4641 25 18C25 17.5359 24.8156 17.0908 24.4874 16.7626C24.1592 16.4344 23.7141 16.25 23.25 16.25H21.5C21.0359 16.25 20.5908 16.4344 20.2626 16.7626C19.9344 17.0908 19.75 17.5359 19.75 18C19.75 18.4641 19.9344 18.9092 20.2626 19.2374C20.5908 19.5656 21.0359 19.75 21.5 19.75ZM18.9223 39.3203L19.5663 38.034C19.6691 37.8284 19.7304 37.6046 19.7468 37.3753C19.7631 37.1461 19.7342 36.9158 19.6615 36.6977C19.5889 36.4797 19.474 36.278 19.3234 36.1043C19.1729 35.9307 18.9896 35.7883 18.784 35.6855C18.5784 35.5827 18.3546 35.5213 18.1253 35.505C17.8961 35.4886 17.6658 35.5176 17.4477 35.5902C17.2297 35.6629 17.028 35.7778 16.8543 35.9283C16.6807 36.0789 16.5383 36.2622 16.4355 36.4677L15.7915 37.754C15.3045 38.727 15.1362 39.8286 15.3106 40.9025C15.4849 41.9765 15.993 42.9683 16.7628 43.7373C17.0131 43.9866 17.1785 44.3085 17.2354 44.6573C17.2922 45.006 17.2377 45.3638 17.0795 45.6797L16.4355 46.966C16.2278 47.3812 16.1935 47.8618 16.3402 48.3023C16.4869 48.7427 16.8026 49.1068 17.2178 49.3145C17.6329 49.5222 18.1136 49.5565 18.554 49.4098C18.9944 49.2631 19.3586 48.9474 19.5663 48.5322L20.2102 47.246C20.6972 46.273 20.8655 45.1714 20.6912 44.0975C20.5168 43.0235 20.0088 42.0317 19.239 41.2627C18.9886 41.0134 18.8233 40.6915 18.7664 40.3427C18.7095 39.994 18.7641 39.6362 18.9223 39.3203ZM25.9222 39.3203L26.5662 38.034C26.6691 37.8284 26.7304 37.6046 26.7468 37.3753C26.7631 37.1461 26.7342 36.9158 26.6615 36.6977C26.5889 36.4797 26.474 36.278 26.3234 36.1043C26.1729 35.9307 25.9896 35.7883 25.784 35.6855C25.5784 35.5827 25.3546 35.5213 25.1253 35.505C24.8961 35.4886 24.6658 35.5176 24.4477 35.5902C24.2297 35.6629 24.028 35.7778 23.8543 35.9283C23.6807 36.0789 23.5383 36.2622 23.4355 36.4677L22.7915 37.754C22.3045 38.727 22.1362 39.8286 22.3106 40.9025C22.4849 41.9765 22.993 42.9683 23.7627 43.7373C24.0131 43.9866 24.1785 44.3085 24.2354 44.6573C24.2922 45.006 24.2377 45.3638 24.0795 45.6797L23.4355 46.966C23.2278 47.3812 23.1935 47.8618 23.3402 48.3023C23.4869 48.7427 23.8026 49.1068 24.2177 49.3145C24.4233 49.4173 24.6471 49.4787 24.8764 49.495C25.1057 49.5114 25.3359 49.4824 25.554 49.4098C25.9944 49.2631 26.3586 48.9474 26.5662 48.5322L27.2102 47.246C27.6972 46.273 27.8655 45.1714 27.6912 44.0975C27.5168 43.0235 27.0088 42.0317 26.239 41.2627C25.9886 41.0134 25.8233 40.6915 25.7664 40.3427C25.7095 39.994 25.7641 39.6362 25.9222 39.3203ZM32.9222 39.3203L33.5662 38.034C33.7739 37.6188 33.8082 37.1382 33.6615 36.6977C33.5148 36.2573 33.1992 35.8932 32.784 35.6855C32.3688 35.4778 31.8882 35.4435 31.4477 35.5902C31.0073 35.7369 30.6432 36.0526 30.4355 36.4677L29.7915 37.754C29.3045 38.727 29.1362 39.8286 29.3106 40.9025C29.4849 41.9765 29.993 42.9683 30.7627 43.7373C31.0131 43.9866 31.1785 44.3085 31.2354 44.6573C31.2922 45.006 31.2377 45.3638 31.0795 45.6797L30.4355 46.966C30.3327 47.1716 30.2713 47.3954 30.255 47.6247C30.2386 47.8539 30.2676 48.0842 30.3402 48.3023C30.4129 48.5203 30.5278 48.722 30.6783 48.8957C30.8289 49.0693 31.0122 49.2117 31.2177 49.3145C31.6329 49.5222 32.1136 49.5565 32.554 49.4098C32.7721 49.3371 32.9737 49.2222 33.1474 49.0717C33.3211 48.9211 33.4634 48.7378 33.5662 48.5322L34.2102 47.246C34.6972 46.273 34.8655 45.1714 34.6912 44.0975C34.5168 43.0235 34.0088 42.0317 33.239 41.2627C32.9886 41.0134 32.8233 40.6915 32.7664 40.3427C32.7095 39.994 32.7641 39.6362 32.9222 39.3203ZM40.239 41.2627C39.9886 41.0134 39.8233 40.6915 39.7664 40.3427C39.7095 39.994 39.7641 39.6362 39.9222 39.3203L40.5662 38.034C40.6691 37.8284 40.7304 37.6046 40.7468 37.3753C40.7631 37.1461 40.7342 36.9158 40.6615 36.6977C40.5889 36.4797 40.474 36.278 40.3234 36.1043C40.1729 35.9307 39.9896 35.7883 39.784 35.6855C39.5784 35.5827 39.3546 35.5213 39.1253 35.505C38.8961 35.4886 38.6658 35.5176 38.4477 35.5902C38.2297 35.6629 38.028 35.7778 37.8543 35.9283C37.6807 36.0789 37.5383 36.2622 37.4355 36.4677L36.7915 37.754C36.3045 38.727 36.1362 39.8286 36.3106 40.9025C36.4849 41.9765 36.993 42.9683 37.7627 43.7373C38.0131 43.9866 38.1785 44.3085 38.2354 44.6573C38.2922 45.006 38.2377 45.3638 38.0795 45.6797L37.4355 46.966C37.2278 47.3812 37.1935 47.8618 37.3402 48.3023C37.4869 48.7427 37.8026 49.1068 38.2177 49.3145C38.6329 49.5222 39.1136 49.5565 39.554 49.4098C39.9944 49.2631 40.3586 48.9474 40.5662 48.5322L41.2102 47.246C41.6972 46.273 41.8655 45.1714 41.6912 44.0975C41.5168 43.0235 41.0088 42.0317 40.239 41.2627Z" fill="#F46B5B"/>
</svg>
