<svg width="57" height="57" viewBox="0 0 57 57" fill="none" xmlns="http://www.w3.org/2000/svg">
<path d="M47.75 19.75H46V11C46 10.5359 45.8156 10.0908 45.4874 9.76256C45.1592 9.43437 44.7141 9.25 44.25 9.25H30.25C29.7859 9.25 29.3407 9.43437 29.0126 9.76256C28.6844 10.0908 28.5 10.5359 28.5 11V19.75H9.25C8.78587 19.75 8.34075 19.9344 8.01256 20.2626C7.68437 20.5908 7.5 21.0359 7.5 21.5V47.75C7.5 48.2141 7.68437 48.6592 8.01256 48.9874C8.34075 49.3156 8.78587 49.5 9.25 49.5H47.75C48.2141 49.5 48.6592 49.3156 48.9874 48.9874C49.3156 48.6592 49.5 48.2141 49.5 47.75V21.5C49.5 21.0359 49.3156 20.5908 48.9874 20.2626C48.6592 19.9344 48.2141 19.75 47.75 19.75ZM32 12.75H42.5V14.5H37.25C36.7859 14.5 36.3407 14.6844 36.0126 15.0126C35.6844 15.3408 35.5 15.7859 35.5 16.25C35.5 16.7141 35.6844 17.1592 36.0126 17.4874C36.3407 17.8156 36.7859 18 37.25 18H42.5V19.75H32V12.75ZM46 46H11V23.25H46V46Z" fill="#383838"/>
<path d="M32.875 25C30.9714 25 29.1105 25.5645 27.5276 26.6221C25.9448 27.6797 24.7112 29.1829 23.9827 30.9417C23.2542 32.7004 23.0636 34.6357 23.4349 36.5027C23.8063 38.3698 24.723 40.0848 26.0691 41.4309C27.4152 42.777 29.1302 43.6937 30.9973 44.0651C32.8643 44.4364 34.7996 44.2458 36.5583 43.5173C38.3171 42.7888 39.8203 41.5552 40.8779 39.9724C41.9355 38.3895 42.5 36.5286 42.5 34.625C42.4968 32.0733 41.4817 29.627 39.6773 27.8227C37.873 26.0183 35.4267 25.0032 32.875 25ZM32.875 40.75C31.6636 40.75 30.4794 40.3908 29.4721 39.7178C28.4649 39.0447 27.6798 38.0881 27.2162 36.9689C26.7527 35.8497 26.6314 34.6182 26.8677 33.4301C27.104 32.2419 27.6874 31.1506 28.544 30.294C29.4006 29.4374 30.4919 28.854 31.6801 28.6177C32.8682 28.3814 34.0997 28.5027 35.2189 28.9662C36.3381 29.4298 37.2947 30.2149 37.9678 31.2221C38.6408 32.2294 39 33.4136 39 34.625C39 36.2495 38.3547 37.8074 37.206 38.956C36.0574 40.1047 34.4995 40.75 32.875 40.75Z" fill="#383838"/>
<path d="M32.875 30.25C32.0097 30.25 31.1638 30.5066 30.4444 30.9873C29.7249 31.4681 29.1642 32.1513 28.833 32.9508C28.5019 33.7502 28.4153 34.6299 28.5841 35.4785C28.7529 36.3272 29.1696 37.1067 29.7814 37.7186C30.3933 38.3304 31.1728 38.7471 32.0215 38.9159C32.8701 39.0847 33.7498 38.9981 34.5492 38.667C35.3487 38.3358 36.0319 37.7751 36.5127 37.0556C36.9934 36.3362 37.25 35.4903 37.25 34.625C37.25 33.4647 36.7891 32.3519 35.9686 31.5314C35.1481 30.7109 34.0353 30.25 32.875 30.25ZM32.875 35.5C32.7019 35.5 32.5328 35.4487 32.3889 35.3525C32.245 35.2564 32.1328 35.1197 32.0666 34.9598C32.0004 34.8 31.9831 34.624 32.0168 34.4543C32.0506 34.2846 32.1339 34.1287 32.2563 34.0063C32.3787 33.8839 32.5346 33.8006 32.7043 33.7668C32.874 33.7331 33.05 33.7504 33.2098 33.8166C33.3697 33.8828 33.5064 33.995 33.6025 34.1389C33.6987 34.2828 33.75 34.4519 33.75 34.625C33.75 34.8571 33.6578 35.0796 33.4937 35.2437C33.3296 35.4078 33.1071 35.5 32.875 35.5Z" fill="#383838"/>
<path d="M16.25 14.5H11C10.5359 14.5 10.0908 14.6844 9.76256 15.0126C9.43437 15.3408 9.25 15.7859 9.25 16.25C9.25 16.7141 9.43437 17.1592 9.76256 17.4874C10.0908 17.8156 10.5359 18 11 18H16.25C16.7141 18 17.1592 17.8156 17.4874 17.4874C17.8156 17.1592 18 16.7141 18 16.25C18 15.7859 17.8156 15.3408 17.4874 15.0126C17.1592 14.6844 16.7141 14.5 16.25 14.5ZM14.5 25C14.0359 25 13.5908 25.1844 13.2626 25.5126C12.9344 25.8408 12.75 26.2859 12.75 26.75V28.5C12.75 28.9641 12.9344 29.4092 13.2626 29.7374C13.5908 30.0656 14.0359 30.25 14.5 30.25C14.9641 30.25 15.4092 30.0656 15.7374 29.7374C16.0656 29.4092 16.25 28.9641 16.25 28.5V26.75C16.25 26.2859 16.0656 25.8408 15.7374 25.5126C15.4092 25.1844 14.9641 25 14.5 25ZM14.5 32C14.0359 32 13.5908 32.1844 13.2626 32.5126C12.9344 32.8407 12.75 33.2859 12.75 33.75V40.75C12.75 41.2141 12.9344 41.6593 13.2626 41.9874C13.5908 42.3156 14.0359 42.5 14.5 42.5C14.9641 42.5 15.4092 42.3156 15.7374 41.9874C16.0656 41.6593 16.25 41.2141 16.25 40.75V33.75C16.25 33.2859 16.0656 32.8407 15.7374 32.5126C15.4092 32.1844 14.9641 32 14.5 32Z" fill="#F46B5B"/>
</svg>
