<svg width="57" height="57" viewBox="0 0 57 57" fill="none" xmlns="http://www.w3.org/2000/svg">
<path d="M43.0565 46H41.9435C39.0577 46 32 43.7408 32 39.5565V35.5H25V39.5565C25 43.7408 17.9423 46 15.0565 46H13.9435C12.2351 45.9981 10.5973 45.3187 9.3893 44.1107C8.18131 42.9027 7.50185 41.2649 7.5 39.5565V23.25C7.5 21.3935 8.2375 19.613 9.55025 18.3003C10.863 16.9875 12.6435 16.25 14.5 16.25H42.5C44.3565 16.25 46.137 16.9875 47.4497 18.3003C48.7625 19.613 49.5 21.3935 49.5 23.25V39.5565C49.4981 41.2649 48.8187 42.9027 47.6107 44.1107C46.4027 45.3187 44.7649 45.9981 43.0565 46ZM23.25 32H33.75C34.2141 32 34.6593 32.1844 34.9874 32.5126C35.3156 32.8407 35.5 33.2859 35.5 33.75V39.5565C35.5 40.4105 39.3815 42.5 41.9435 42.5H43.0565C43.8369 42.4991 44.585 42.1887 45.1368 41.6368C45.6887 41.085 45.9991 40.3369 46 39.5565V23.25C46 22.3217 45.6312 21.4315 44.9749 20.7751C44.3185 20.1187 43.4283 19.75 42.5 19.75H14.5C13.5717 19.75 12.6815 20.1187 12.0251 20.7751C11.3687 21.4315 11 22.3217 11 23.25V39.5565C11.0009 40.3369 11.3113 41.085 11.8632 41.6368C12.415 42.1887 13.1631 42.4991 13.9435 42.5H15.0565C17.6185 42.5 21.5 40.4105 21.5 39.5565V33.75C21.5 33.2859 21.6844 32.8407 22.0126 32.5126C22.3408 32.1844 22.7859 32 23.25 32Z" fill="#383838"/>
<path d="M37.25 21.5C36.7859 21.5 36.3407 21.6844 36.0126 22.0126C35.6844 22.3408 35.5 22.7859 35.5 23.25V28.5C35.5 28.9641 35.6844 29.4092 36.0126 29.7374C36.3407 30.0656 36.7859 30.25 37.25 30.25C37.7141 30.25 38.1593 30.0656 38.4874 29.7374C38.8156 29.4092 39 28.9641 39 28.5V23.25C39 22.7859 38.8156 22.3408 38.4874 22.0126C38.1593 21.6844 37.7141 21.5 37.25 21.5ZM42.5 23.25C42.0359 23.25 41.5907 23.4344 41.2626 23.7626C40.9344 24.0908 40.75 24.5359 40.75 25V30.25C40.75 30.7141 40.9344 31.1592 41.2626 31.4874C41.5907 31.8156 42.0359 32 42.5 32C42.9641 32 43.4093 31.8156 43.7374 31.4874C44.0656 31.1592 44.25 30.7141 44.25 30.25V25C44.25 24.5359 44.0656 24.0908 43.7374 23.7626C43.4093 23.4344 42.9641 23.25 42.5 23.25ZM21.5 25H19.75V23.25C19.75 22.7859 19.5656 22.3408 19.2374 22.0126C18.9092 21.6844 18.4641 21.5 18 21.5C17.5359 21.5 17.0908 21.6844 16.7626 22.0126C16.4344 22.3408 16.25 22.7859 16.25 23.25V25H14.5C14.0359 25 13.5908 25.1844 13.2626 25.5126C12.9344 25.8408 12.75 26.2859 12.75 26.75C12.75 27.2141 12.9344 27.6592 13.2626 27.9874C13.5908 28.3156 14.0359 28.5 14.5 28.5H16.25V30.25C16.25 30.7141 16.4344 31.1592 16.7626 31.4874C17.0908 31.8156 17.5359 32 18 32C18.4641 32 18.9092 31.8156 19.2374 31.4874C19.5656 31.1592 19.75 30.7141 19.75 30.25V28.5H21.5C21.9641 28.5 22.4092 28.3156 22.7374 27.9874C23.0656 27.6592 23.25 27.2141 23.25 26.75C23.25 26.2859 23.0656 25.8408 22.7374 25.5126C22.4092 25.1844 21.9641 25 21.5 25Z" fill="#F46B5B"/>
</svg>
