<svg width="57" height="57" viewBox="0 0 57 57" fill="none" xmlns="http://www.w3.org/2000/svg">
<path d="M45.356 9.25H11.644C10.5454 9.25139 9.49213 9.68843 8.71528 10.4653C7.93843 11.2421 7.50139 12.2954 7.5 13.394V35.5C7.5 35.9641 7.68437 36.4093 8.01256 36.7374C8.34075 37.0656 8.78587 37.25 9.25 37.25H47.75C48.2141 37.25 48.6592 37.0656 48.9874 36.7374C49.3156 36.4093 49.5 35.9641 49.5 35.5V13.394C49.4986 12.2954 49.0616 11.2421 48.2847 10.4653C47.5079 9.68843 46.4546 9.25139 45.356 9.25ZM46 33.75H11V13.394C11 13.3094 11.0167 13.2257 11.049 13.1476C11.0814 13.0694 11.1288 12.9984 11.1886 12.9386C11.2484 12.8788 11.3194 12.8314 11.3976 12.799C11.4757 12.7667 11.5594 12.75 11.644 12.75H45.356C45.4406 12.75 45.5243 12.7667 45.6024 12.799C45.6806 12.8314 45.7516 12.8788 45.8114 12.9386C45.8712 12.9984 45.9186 13.0694 45.951 13.1476C45.9833 13.2257 46 13.3094 46 13.394V33.75ZM47.75 39H9.25C8.78587 39 8.34075 39.1844 8.01256 39.5126C7.68437 39.8407 7.5 40.2859 7.5 40.75V42.304C7.50139 43.7476 8.07537 45.1318 9.09601 46.1528C10.1167 47.1737 11.5006 47.7481 12.9443 47.75H44.0557C45.4994 47.7481 46.8833 47.1737 47.904 46.1528C48.9246 45.1318 49.4986 43.7476 49.5 42.304V40.75C49.5 40.2859 49.3156 39.8407 48.9874 39.5126C48.6592 39.1844 48.2141 39 47.75 39ZM44.0557 44.25H12.9443C12.4625 44.2494 11.998 44.0701 11.6408 43.7469C11.2836 43.4236 11.059 42.9793 11.0105 42.5H45.9895C45.941 42.9793 45.7164 43.4236 45.3592 43.7469C45.002 44.0701 44.5375 44.2494 44.0557 44.25Z" fill="#383838"/>
<path d="M32.7245 23.25H33.75C34.2141 23.25 34.6592 23.0656 34.9874 22.7374C35.3156 22.4092 35.5 21.9641 35.5 21.5C35.5 21.0359 35.3156 20.5908 34.9874 20.2626C34.6592 19.9344 34.2141 19.75 33.75 19.75H28.5C28.0359 19.75 27.5908 19.9344 27.2626 20.2626C26.9344 20.5908 26.75 21.0359 26.75 21.5V26.75C26.75 27.2141 26.9344 27.6592 27.2626 27.9874C27.5908 28.3156 28.0359 28.5 28.5 28.5C28.9641 28.5 29.4092 28.3156 29.7374 27.9874C30.0656 27.6592 30.25 27.2141 30.25 26.75V25.7245L32.5127 27.9872C32.8428 28.306 33.2849 28.4824 33.7437 28.4784C34.2025 28.4744 34.6415 28.2904 34.9659 27.9659C35.2904 27.6415 35.4744 27.2025 35.4784 26.7437C35.4824 26.2849 35.306 25.8428 34.9873 25.5128L32.7245 23.25Z" fill="#F46B5B"/>
</svg>
