<svg width="57" height="57" viewBox="0 0 57 57" fill="none" xmlns="http://www.w3.org/2000/svg">
<path d="M33.7503 12.75H30.2503C29.7862 12.75 29.3411 12.9344 29.0129 13.2626C28.6847 13.5908 28.5003 14.0359 28.5003 14.5C28.5003 14.9641 28.6847 15.4092 29.0129 15.7374C29.3411 16.0656 29.7862 16.25 30.2503 16.25H33.7503C34.2145 16.25 34.6596 16.0656 34.9878 15.7374C35.316 15.4092 35.5003 14.9641 35.5003 14.5C35.5003 14.0359 35.316 13.5908 34.9878 13.2626C34.6596 12.9344 34.2145 12.75 33.7503 12.75ZM30.1103 41.835C30.0719 41.7235 30.0189 41.6176 29.9528 41.52L29.7428 41.2575C29.5754 41.0994 29.3794 40.9747 29.1653 40.89C28.7393 40.715 28.2614 40.715 27.8353 40.89C27.6233 40.9787 27.428 41.103 27.2578 41.2575C26.938 41.5929 26.7568 42.0367 26.7503 42.5C26.7531 42.6174 26.7648 42.7344 26.7853 42.85C26.8044 42.9597 26.8397 43.0658 26.8903 43.165C26.925 43.2726 26.9783 43.3733 27.0478 43.4625C27.1178 43.5675 27.1878 43.655 27.2578 43.7425C27.4282 43.8968 27.6234 44.021 27.8353 44.11C28.0449 44.2024 28.2713 44.2501 28.5003 44.2501C28.7293 44.2501 28.9558 44.2024 29.1653 44.11C29.3772 44.021 29.5724 43.8967 29.7428 43.7425C29.8128 43.655 29.8828 43.5675 29.9528 43.4625C30.0223 43.3733 30.0756 43.2726 30.1103 43.165C30.1605 43.0657 30.1959 42.9596 30.2153 42.85C30.2355 42.7343 30.2472 42.6174 30.2503 42.5C30.2463 42.3827 30.2346 42.2658 30.2153 42.15C30.1959 42.0404 30.1605 41.9343 30.1103 41.835ZM26.2428 13.2575C25.9967 13.0147 25.6842 12.8502 25.3447 12.7848C25.0053 12.7194 24.654 12.756 24.3353 12.89C24.1211 12.9744 23.925 13.0992 23.7578 13.2575C23.4283 13.587 23.2432 14.034 23.2432 14.5C23.2432 14.966 23.4283 15.413 23.7578 15.7425C24.0874 16.072 24.5343 16.2572 25.0003 16.2572C25.4664 16.2572 25.9133 16.072 26.2428 15.7425C26.3128 15.655 26.3828 15.5675 26.4528 15.4625C26.5223 15.3733 26.5756 15.2726 26.6103 15.165C26.6605 15.0657 26.6959 14.9596 26.7153 14.85C26.7355 14.7343 26.7472 14.6174 26.7503 14.5C26.7435 14.0367 26.5623 13.5931 26.2428 13.2575Z" fill="#F46B5B"/>
<path d="M39 7.5H18C17.5359 7.5 17.0908 7.68437 16.7626 8.01256C16.4344 8.34075 16.25 8.78587 16.25 9.25V47.75C16.25 48.2141 16.4344 48.6592 16.7626 48.9874C17.0908 49.3156 17.5359 49.5 18 49.5H39C39.4641 49.5 39.9093 49.3156 40.2374 48.9874C40.5656 48.6592 40.75 48.2141 40.75 47.75V9.25C40.75 8.78587 40.5656 8.34075 40.2374 8.01256C39.9093 7.68437 39.4641 7.5 39 7.5ZM19.75 11H37.25V35.5H19.75V11ZM19.75 46V39H37.25V46H19.75Z" fill="#383838"/>
</svg>
