<svg width="57" height="57" viewBox="0 0 57 57" fill="none" xmlns="http://www.w3.org/2000/svg">
<path d="M39 49.5H18C17.5359 49.5 17.0908 49.3156 16.7626 48.9874C16.4344 48.6592 16.25 48.2141 16.25 47.75V9.25C16.25 8.78587 16.4344 8.34075 16.7626 8.01256C17.0908 7.68437 17.5359 7.5 18 7.5H39C39.4641 7.5 39.9093 7.68437 40.2374 8.01256C40.5656 8.34075 40.75 8.78587 40.75 9.25V47.75C40.75 48.2141 40.5656 48.6592 40.2374 48.9874C39.9093 49.3156 39.4641 49.5 39 49.5ZM19.75 46H37.25V11H19.75V46Z" fill="#383838"/>
<path d="M28.5 26.75C29.8845 26.75 31.2379 26.3395 32.389 25.5703C33.5401 24.8011 34.4373 23.7079 34.9672 22.4288C35.497 21.1497 35.6356 19.7422 35.3655 18.3844C35.0954 17.0265 34.4287 15.7792 33.4498 14.8003C32.4708 13.8213 31.2235 13.1546 29.8656 12.8845C28.5078 12.6144 27.1003 12.753 25.8212 13.2828C24.5421 13.8127 23.4489 14.7099 22.6797 15.861C21.9105 17.0122 21.5 18.3655 21.5 19.75C21.5 21.6065 22.2375 23.387 23.5503 24.6998C24.863 26.0125 26.6435 26.75 28.5 26.75ZM28.5 16.25C29.1922 16.25 29.8689 16.4553 30.4445 16.8399C31.0201 17.2244 31.4687 17.7711 31.7336 18.4106C31.9985 19.0502 32.0678 19.7539 31.9328 20.4328C31.7977 21.1118 31.4644 21.7354 30.9749 22.2249C30.4854 22.7144 29.8618 23.0477 29.1828 23.1828C28.5039 23.3178 27.8002 23.2485 27.1606 22.9836C26.5211 22.7187 25.9744 22.2701 25.5899 21.6945C25.2053 21.1189 25 20.4422 25 19.75C25 18.8217 25.3688 17.9315 26.0251 17.2751C26.6815 16.6188 27.5717 16.25 28.5 16.25ZM28.5 28.5C27.1155 28.5 25.7622 28.9105 24.611 29.6797C23.4599 30.4489 22.5627 31.5421 22.0328 32.8212C21.503 34.1003 21.3644 35.5078 21.6345 36.8656C21.9046 38.2235 22.5713 39.4708 23.5503 40.4498C24.5292 41.4287 25.7765 42.0954 27.1344 42.3655C28.4922 42.6356 29.8997 42.497 31.1788 41.9672C32.4579 41.4374 33.5511 40.5401 34.3203 39.389C35.0895 38.2379 35.5 36.8845 35.5 35.5C35.5 33.6435 34.7625 31.863 33.4498 30.5503C32.137 29.2375 30.3565 28.5 28.5 28.5ZM28.5 39C27.8078 39 27.1311 38.7947 26.5555 38.4102C25.9799 38.0256 25.5313 37.4789 25.2664 36.8394C25.0015 36.1999 24.9322 35.4961 25.0673 34.8172C25.2023 34.1383 25.5356 33.5146 26.0251 33.0251C26.5146 32.5357 27.1383 32.2023 27.8172 32.0673C28.4961 31.9322 29.1999 32.0015 29.8394 32.2664C30.4789 32.5313 31.0256 32.9799 31.4101 33.5555C31.7947 34.1311 32 34.8078 32 35.5C32 36.4283 31.6313 37.3185 30.9749 37.9749C30.3185 38.6313 29.4283 39 28.5 39Z" fill="#F46B5B"/>
</svg>
