<svg width="57" height="57" viewBox="0 0 57 57" fill="none" xmlns="http://www.w3.org/2000/svg">
<path d="M37.25 35.5H35.5C35.0359 35.5 34.5907 35.6844 34.2626 36.0126C33.9344 36.3408 33.75 36.7859 33.75 37.25C33.75 37.7141 33.9344 38.1592 34.2626 38.4874C34.5907 38.8156 35.0359 39 35.5 39H37.25C37.7141 39 38.1593 38.8156 38.4874 38.4874C38.8156 38.1592 39 37.7141 39 37.25C39 36.7859 38.8156 36.3408 38.4874 36.0126C38.1593 35.6844 37.7141 35.5 37.25 35.5ZM37.25 40.75H35.5C35.0359 40.75 34.5907 40.9344 34.2626 41.2626C33.9344 41.5908 33.75 42.0359 33.75 42.5C33.75 42.9641 33.9344 43.4093 34.2626 43.7374C34.5907 44.0656 35.0359 44.25 35.5 44.25H37.25C37.7141 44.25 38.1593 44.0656 38.4874 43.7374C38.8156 43.4093 39 42.9641 39 42.5C39 42.0359 38.8156 41.5908 38.4874 41.2626C38.1593 40.9344 37.7141 40.75 37.25 40.75ZM37.25 30.25H35.5C35.0359 30.25 34.5907 30.4344 34.2626 30.7626C33.9344 31.0908 33.75 31.5359 33.75 32C33.75 32.4641 33.9344 32.9092 34.2626 33.2374C34.5907 33.5656 35.0359 33.75 35.5 33.75H37.25C37.7141 33.75 38.1593 33.5656 38.4874 33.2374C38.8156 32.9092 39 32.4641 39 32C39 31.5359 38.8156 31.0908 38.4874 30.7626C38.1593 30.4344 37.7141 30.25 37.25 30.25ZM44.25 35.5H42.5C42.0359 35.5 41.5907 35.6844 41.2626 36.0126C40.9344 36.3408 40.75 36.7859 40.75 37.25C40.75 37.7141 40.9344 38.1592 41.2626 38.4874C41.5907 38.8156 42.0359 39 42.5 39H44.25C44.7141 39 45.1592 38.8156 45.4874 38.4874C45.8156 38.1592 46 37.7141 46 37.25C46 36.7859 45.8156 36.3408 45.4874 36.0126C45.1592 35.6844 44.7141 35.5 44.25 35.5ZM44.25 40.75H42.5C42.0359 40.75 41.5907 40.9344 41.2626 41.2626C40.9344 41.5908 40.75 42.0359 40.75 42.5C40.75 42.9641 40.9344 43.4093 41.2626 43.7374C41.5907 44.0656 42.0359 44.25 42.5 44.25H44.25C44.7141 44.25 45.1592 44.0656 45.4874 43.7374C45.8156 43.4093 46 42.9641 46 42.5C46 42.0359 45.8156 41.5908 45.4874 41.2626C45.1592 40.9344 44.7141 40.75 44.25 40.75ZM40.75 32C40.75 32.4641 40.9344 32.9092 41.2626 33.2374C41.5907 33.5656 42.0359 33.75 42.5 33.75H44.25C44.7141 33.75 45.1592 33.5656 45.4874 33.2374C45.8156 32.9092 46 32.4641 46 32C46 31.5359 45.8156 31.0908 45.4874 30.7626C45.1592 30.4344 44.7141 30.25 44.25 30.25H42.5C42.0359 30.25 41.5907 30.4344 41.2626 30.7626C40.9344 31.0908 40.75 31.5359 40.75 32ZM28.5 37.25H21.5C21.0359 37.25 20.5908 37.4344 20.2626 37.7626C19.9344 38.0908 19.75 38.5359 19.75 39C19.75 39.4641 19.9344 39.9092 20.2626 40.2374C20.5908 40.5656 21.0359 40.75 21.5 40.75H28.5C28.9641 40.75 29.4093 40.5656 29.7374 40.2374C30.0656 39.9092 30.25 39.4641 30.25 39C30.25 38.5359 30.0656 38.0908 29.7374 37.7626C29.4093 37.4344 28.9641 37.25 28.5 37.25ZM16.25 37.25H14.5C14.0359 37.25 13.5908 37.4344 13.2626 37.7626C12.9344 38.0908 12.75 38.5359 12.75 39C12.75 39.4641 12.9344 39.9092 13.2626 40.2374C13.5908 40.5656 14.0359 40.75 14.5 40.75H16.25C16.7141 40.75 17.1592 40.5656 17.4874 40.2374C17.8156 39.9092 18 39.4641 18 39C18 38.5359 17.8156 38.0908 17.4874 37.7626C17.1592 37.4344 16.7141 37.25 16.25 37.25ZM42.5 28.5C42.5 28.0359 42.3156 27.5908 41.9874 27.2626C41.6593 26.9344 41.2141 26.75 40.75 26.75H39C38.5359 26.75 38.0907 26.9344 37.7626 27.2626C37.4344 27.5908 37.25 28.0359 37.25 28.5C37.25 28.9641 37.4344 29.4092 37.7626 29.7374C38.0907 30.0656 38.5359 30.25 39 30.25H40.75C41.2141 30.25 41.6593 30.0656 41.9874 29.7374C42.3156 29.4092 42.5 28.9641 42.5 28.5Z" fill="#F46B5B"/>
<path d="M47.75 7.5H9.25C8.78587 7.5 8.34075 7.68437 8.01256 8.01256C7.68437 8.34075 7.5 8.78587 7.5 9.25V46C7.5 46.4641 7.68437 46.9092 8.01256 47.2374C8.34075 47.5656 8.78587 47.75 9.25 47.75H47.75C48.2141 47.75 48.6592 47.5656 48.9874 47.2374C49.3156 46.9092 49.5 46.4641 49.5 46V9.25C49.5 8.78587 49.3156 8.34075 48.9874 8.01256C48.6592 7.68437 48.2141 7.5 47.75 7.5ZM11 11H46V21.5H33.75C33.2859 21.5 32.8407 21.6844 32.5126 22.0126C32.1844 22.3408 32 22.7859 32 23.25V32H11V11ZM11 35.5H32V44.25H11V35.5ZM46 44.25H35.5V25H46V44.25Z" fill="#383838"/>
</svg>
